<?xml version="1.0" encoding="utf-8"?>
<!-- Generator: Adobe Illustrator 19.1.0, SVG Export Plug-In . SVG Version: 6.00 Build 0)  -->
<svg version="1.1" id="Layer_1" xmlns="http://www.w3.org/2000/svg" xmlns:xlink="http://www.w3.org/1999/xlink" x="0px" y="0px"
	 viewBox="0 0 54.2 59.1" style="enable-background:new 0 0 54.2 59.1;" xml:space="preserve">
<style type="text/css">
	.st0{fill:#116D5F;}
	.st1{display:none;}
	.st2{display:inline;fill:#FFFFFF;}
	.st3{fill:#FFFFFF;}
</style>
<circle class="st0" cx="27.1" cy="29.1" r="27.1"/>
<g class="st1">
	<path class="st2" d="M27.1,12.3c0.4,0,0.8-0.4,0.8-0.8V8.3c0-0.4-0.4-0.8-0.8-0.8c-0.4,0-0.8,0.4-0.8,0.8v3.2
		C26.3,11.9,26.6,12.3,27.1,12.3L27.1,12.3z M27.1,12.3"/>
	<path class="st2" d="M46.3,26.7h-3.2c-0.4,0-0.8,0.4-0.8,0.8s0.4,0.8,0.8,0.8h3.2c0.4,0,0.8-0.4,0.8-0.8S46.7,26.7,46.3,26.7
		L46.3,26.7z M46.3,26.7"/>
	<path class="st2" d="M11.1,26.7H7.9c-0.4,0-0.8,0.4-0.8,0.8s0.4,0.8,0.8,0.8h3.2c0.4,0,0.8-0.4,0.8-0.8S11.5,26.7,11.1,26.7
		L11.1,26.7z M11.1,26.7"/>
	<path class="st2" d="M40.1,13.3l-2.3,2.3c-0.3,0.3-0.3,0.8,0,1.1c0.2,0.2,0.4,0.2,0.6,0.2c0.2,0,0.4-0.1,0.6-0.2l2.3-2.3
		c0.3-0.3,0.3-0.8,0-1.1C40.9,13,40.4,13,40.1,13.3L40.1,13.3z M40.1,13.3"/>
	<path class="st2" d="M15.2,38.2l-2.3,2.3c-0.3,0.3-0.3,0.8,0,1.1c0.2,0.2,0.4,0.2,0.6,0.2c0.2,0,0.4-0.1,0.6-0.2l2.3-2.3
		c0.3-0.3,0.3-0.8,0-1.1C16,37.9,15.5,37.9,15.2,38.2L15.2,38.2z M15.2,38.2"/>
	<path class="st2" d="M39,38.2c-0.3-0.3-0.8-0.3-1.1,0c-0.3,0.3-0.3,0.8,0,1.1l2.3,2.3c0.2,0.2,0.4,0.2,0.6,0.2
		c0.2,0,0.4-0.1,0.6-0.2c0.3-0.3,0.3-0.8,0-1.1L39,38.2z M39,38.2"/>
	<path class="st2" d="M15.2,16.7c0.2,0.2,0.4,0.2,0.6,0.2c0.2,0,0.4-0.1,0.6-0.2c0.3-0.3,0.3-0.8,0-1.1l-2.3-2.3
		c-0.3-0.3-0.8-0.3-1.1,0c-0.3,0.3-0.3,0.8,0,1.1L15.2,16.7z M15.2,16.7"/>
	<path class="st2" d="M27.1,17.9c-5.3,0-9.6,4.3-9.6,9.6c0,0.4,0.4,0.8,0.8,0.8c0.4,0,0.8-0.4,0.8-0.8c0-4.4,3.6-8,8-8
		c0.4,0,0.8-0.4,0.8-0.8C27.9,18.2,27.5,17.9,27.1,17.9L27.1,17.9z M27.1,17.9"/>
	<path class="st2" d="M27.1,13.9c-7.5,0-13.6,6.1-13.6,13.6c0,5.7,3.5,10.7,8.8,12.7v7.3c0,0.4,0.4,0.8,0.8,0.8h0.8v1.6
		c0,0.4,0.4,0.8,0.8,0.8h4.8c0.4,0,0.8-0.4,0.8-0.8v-1.6h0.8c0.4,0,0.8-0.4,0.8-0.8v-7.3c5.3-2,8.8-7,8.8-12.7
		C40.7,20,34.6,13.9,27.1,13.9L27.1,13.9z M30.8,38.9c-0.3,0.1-0.6,0.4-0.6,0.8v1.4h-6.4v-1.4c0-0.3-0.2-0.7-0.6-0.8
		c-4.9-1.6-8.3-6.2-8.3-11.4c0-6.6,5.4-12,12-12c6.6,0,12,5.4,12,12C39.1,32.7,35.8,37.3,30.8,38.9L30.8,38.9z M30.8,38.9"/>
</g>
<g class="st1">
	<path class="st2" d="M47.5,11.8L43.4,10C43.2,10,43,10,42.8,10.1c-0.2,0.1-0.3,0.3-0.3,0.5v17.3H31.8v-4.2c0-1.6-1.4-3-3-3h-3.5
		v-1.8h2.9c1.6,0,3-1.3,3-3v-5.4c0-0.3-0.3-0.6-0.6-0.6h-2.4c-0.3,0-0.6,0.3-0.6,0.6v4.8h-2.9c0.3-0.6,0.5-1.1,0.5-1.8
		c0-2-1.6-3.6-3.6-3.6c-2,0-3.6,1.6-3.6,3.6c0,0.8,0.2,1.5,0.7,2.1L15.3,19c-0.6,0.6-0.9,1.3-0.9,2.1c0,0.8,0.3,1.5,0.9,2.1l2.2,2.2
		c0.1,0.1,0.3,0.2,0.4,0.2c0.2,0,0.3-0.1,0.4-0.2l0.8-0.8v8.7c0,0.3,0.2,0.6,0.6,0.6h0.1c-0.4,0.6-0.6,1.1-0.6,1.8
		c0,0.7,0.2,1.2,0.6,1.8h-2.4c-1.6,0-3,1.3-3,3c0,0.7,0.2,1.2,0.6,1.8h-2.4c-1.6,0-3,1.3-3,3c0,1.6,1.3,3,3,3h16.7
		c0.2,0,0.4-0.1,0.5-0.3c0.1-0.2,0.1-0.4-0.1-0.6c-0.8-1.1-0.9-2.6-0.1-3.8h4.4c0.2,0,0.4-0.1,0.5-0.3c0.1-0.2,0.1-0.4-0.1-0.6
		c-0.8-1.1-0.9-2.6-0.1-3.8h4.4c0.2,0,0.4-0.1,0.5-0.3c0.1-0.2,0.1-0.4-0.1-0.6c-0.8-1.1-0.9-2.6-0.2-3.8h4.5c0.2,0,0.4-0.1,0.5-0.3
		c0.1-0.2,0.1-0.4-0.1-0.6c-0.9-1.2-0.9-2.9,0-4.1c0.1-0.2,0.2-0.4,0.1-0.6c-0.1-0.2-0.3-0.3-0.5-0.3V14.6l3.8-1.6
		c0.2-0.1,0.4-0.3,0.4-0.5C47.9,12.1,47.8,11.9,47.5,11.8L47.5,11.8z M21.6,11.2c1.3,0,2.4,1.1,2.4,2.4c0,1.3-1.1,2.4-2.4,2.4
		c-1.3,0-2.4-1.1-2.4-2.4C19.2,12.2,20.3,11.2,21.6,11.2L21.6,11.2z M19.2,21.8l-0.7-0.7l0.7-0.7V21.8z M19.4,18.5l-2.1,2.1
		c-0.1,0.1-0.2,0.3-0.2,0.4s0.1,0.3,0.2,0.4l1.7,1.7L18,24.1l-1.8-1.8c-0.3-0.3-0.5-0.8-0.5-1.3c0-0.5,0.2-0.9,0.5-1.3l3.3-3.3
		c0.6,0.4,1.3,0.7,2.1,0.7c0.7,0,1.4,0,2-0.6h4.6c0.3,0,0.6-0.3,0.6-0.6v-4.8H30V16c0,1-0.8,1.8-1.8,1.8h-3.6
		c-0.3,0-0.6,0.3-0.6,0.6v3c0,0.3,0.2,0.6,0.6,0.6h4.2c1,0,1.8,0.8,1.8,1.8v4.2h-1.8v-3.6c0-0.3-0.3-0.6-0.6-0.6h-5.4
		c-0.3,0-0.6,0.3-0.6,0.6v8.4h-1.8V18.9c0-0.2-0.2-0.5-0.4-0.6C19.8,18.3,19.5,18.3,19.4,18.5L19.4,18.5z M24.6,32.7h-1.2v-7.8h4.2
		v3H27c-1.6,0-3,1.3-3,3C24,31.5,24.3,32.1,24.6,32.7L24.6,32.7z M12.7,47c-1,0-1.8-0.8-1.8-1.8c0-1,0.8-1.8,1.8-1.8h15.7
		c-0.2,0.6-0.3,0.6-0.3,1.2H13.9v1.2h14.2c0.1,0.6,0.2,0.6,0.3,1.2H12.7z M29.4,42.2H17.5c-1,0-1.8-0.8-1.8-1.8c0-1,0.8-1.8,1.8-1.8
		h15.7c-0.2,0.6-0.3,0.6-0.3,1.2h-9.4V41h9.4c0.1,0.6,0.2,0.6,0.3,1.2H29.4z M37.6,36.2c0.1,0.6,0.2,0.6,0.3,1.2H22.2
		c-1,0-1.8-0.8-1.8-1.8c0-1,0.8-1.8,1.8-1.8h15.7c-0.2,0.6-0.3,0.6-0.3,1.2h-5.2v1.2H37.6z M42.4,31.5c0.1,0.6,0.2,0.6,0.3,1.2H27
		c-1,0-1.8-0.8-1.8-1.8s0.8-1.8,1.8-1.8h15.7c-0.2,0.6-0.3,0.6-0.3,1.2H33v1.2H42.4z M43.7,13.3v-1.8l2.1,0.9L43.7,13.3z M43.7,13.3
		"/>
</g>
<g class="st1">
	<path class="st2" d="M21,9.4c-2.8,0-5,2.3-5,5c0,2.8,2.3,5,5,5c2.8,0,5-2.3,5-5C26.1,11.7,23.8,9.4,21,9.4L21,9.4z M21,17.5
		c-1.7,0-3.1-1.4-3.1-3.1c0-1.7,1.4-3.1,3.1-3.1c1.7,0,3.1,1.4,3.1,3.1C24.1,16.1,22.7,17.5,21,17.5L21,17.5z M21,17.5"/>
	<path class="st2" d="M32.6,19.5c2.8,0,5-2.3,5-5c0-2.8-2.3-5-5-5c-2.8,0-5,2.3-5,5C27.6,17.2,29.9,19.5,32.6,19.5L32.6,19.5z
		 M32.6,11.4c1.7,0,3.1,1.4,3.1,3.1c0,1.7-1.4,3.1-3.1,3.1c-1.7,0-3.1-1.4-3.1-3.1C29.6,12.8,31,11.4,32.6,11.4L32.6,11.4z
		 M32.6,11.4"/>
	<path class="st2" d="M12.6,25.5V32c0,1.9,1,3.5,2.6,4.4v8.4c0,2.2,1.8,4,4,4h4.6c0.5,0,1-0.4,1-1c0-0.5-0.4-1-1-1h-4.6
		c-1.1,0-2-0.9-2-2v-9c0-0.4-0.3-0.8-0.6-0.9c-1.2-0.4-2-1.6-2-2.8v-6.4c0-1.7,1.4-3,3-3h4.3c0.5,0,1-0.4,1-1c0-0.5-0.4-1-1-1h-4.3
		C14.9,20.5,12.6,22.8,12.6,25.5L12.6,25.5z M12.6,25.5"/>
	<path class="st2" d="M23.8,25.5V32c0,1.9,1,3.5,2.6,4.4v8.4c0,2.2,1.8,4,4,4h4.6c2.2,0,4-1.8,4-4v-8.4c1.6-0.9,2.6-2.6,2.6-4.4
		v-6.4c0-2.8-2.2-5-5-5h-7.8C26,20.5,23.8,22.8,23.8,25.5L23.8,25.5z M25.7,25.5c0-1.7,1.4-3,3-3h7.8c1.7,0,3,1.4,3,3V32
		c0,1.3-0.8,2.4-2,2.8c-0.4,0.1-0.6,0.5-0.6,0.9v9.1c0,1.1-0.9,2-2,2h-4.6c-1.1,0-2-0.9-2-2v-9.1c0-0.4-0.3-0.8-0.6-0.9
		c-1.2-0.4-2-1.6-2-2.8L25.7,25.5L25.7,25.5z M25.7,25.5"/>
</g>
<g>
	<g>
		<path class="st3" d="M46.8,26c0-2.9-2.3-5.2-5.2-5.2h-8V15c0-2.4-0.7-4.2-2.1-5.2c-2.2-1.6-5.3-0.7-5.4-0.7
			c-0.4,0.1-0.7,0.5-0.7,0.9v6.5c0,5.1-5.9,6.8-6.2,6.9c-0.1,0-0.1,0-0.2,0.1c-0.4-0.9-1.4-1.5-2.4-1.5h-4.3c-1.5,0-2.7,1.2-2.7,2.7
			v15.8c0,1.5,1.2,2.7,2.7,2.7h2.5c0.5,0,0.9-0.4,0.9-0.9c0-0.5-0.4-0.9-0.9-0.9h-2.5c-0.4,0-0.8-0.4-0.8-0.8V24.7
			c0-0.4,0.4-0.8,0.8-0.8h4.3c0.4,0,0.8,0.4,0.8,0.8v14.9c0,2.9,2.3,5.2,5.2,5.2h15.9c3.5,0,5.8-1.8,6.2-5l2.1-13.4c0,0,0-0.1,0-0.1
			L46.8,26L46.8,26z M45,26.1l-2.1,13.4c-0.3,2.3-1.7,3.4-4.3,3.4H22.7c-1.8,0-3.3-1.5-3.3-3.3V25.2c0.1,0,0.3,0,0.4,0
			c0.3-0.1,7.5-2.2,7.5-8.7v-5.7c0.8-0.1,2.1-0.2,3.1,0.5c0.9,0.7,1.4,1.9,1.4,3.7v6.7c0,0.5,0.4,0.9,0.9,0.9h8.9
			C43.5,22.7,45,24.2,45,26.1L45,26.1L45,26.1z M45,26.1"/>
	</g>
</g>
</svg>
