<?xml version="1.0" encoding="utf-8"?>
<!-- Generator: Adobe Illustrator 19.1.0, SVG Export Plug-In . SVG Version: 6.00 Build 0)  -->
<svg version="1.1" id="Layer_1" xmlns="http://www.w3.org/2000/svg" xmlns:xlink="http://www.w3.org/1999/xlink" x="0px" y="0px"
	 viewBox="0 0 54.2 59.1" style="enable-background:new 0 0 54.2 59.1;" xml:space="preserve">
<style type="text/css">
	.st0{fill:#116D5F;}
	.st1{fill:#FFFFFF;}
	.st2{display:none;}
	.st3{display:inline;fill:#FFFFFF;}
	.st4{display:inline;}
	.st5{fill:#FFFFFF;stroke:#FFFFFF;stroke-width:0.5;stroke-miterlimit:10;}
</style>
<circle class="st0" cx="27.1" cy="29.1" r="27.1"/>
<g>
	<path class="st1" d="M27.1,12.3c0.4,0,0.8-0.4,0.8-0.8V8.3c0-0.4-0.4-0.8-0.8-0.8c-0.4,0-0.8,0.4-0.8,0.8v3.2
		C26.3,11.9,26.6,12.3,27.1,12.3L27.1,12.3z M27.1,12.3"/>
	<path class="st1" d="M46.3,26.7h-3.2c-0.4,0-0.8,0.4-0.8,0.8s0.4,0.8,0.8,0.8h3.2c0.4,0,0.8-0.4,0.8-0.8S46.7,26.7,46.3,26.7
		L46.3,26.7z M46.3,26.7"/>
	<path class="st1" d="M11.1,26.7H7.9c-0.4,0-0.8,0.4-0.8,0.8s0.4,0.8,0.8,0.8h3.2c0.4,0,0.8-0.4,0.8-0.8S11.5,26.7,11.1,26.7
		L11.1,26.7z M11.1,26.7"/>
	<path class="st1" d="M40.1,13.3l-2.3,2.3c-0.3,0.3-0.3,0.8,0,1.1c0.2,0.2,0.4,0.2,0.6,0.2c0.2,0,0.4-0.1,0.6-0.2l2.3-2.3
		c0.3-0.3,0.3-0.8,0-1.1C40.9,13,40.4,13,40.1,13.3L40.1,13.3z M40.1,13.3"/>
	<path class="st1" d="M15.2,38.2l-2.3,2.3c-0.3,0.3-0.3,0.8,0,1.1c0.2,0.2,0.4,0.2,0.6,0.2c0.2,0,0.4-0.1,0.6-0.2l2.3-2.3
		c0.3-0.3,0.3-0.8,0-1.1C16,37.9,15.5,37.9,15.2,38.2L15.2,38.2z M15.2,38.2"/>
	<path class="st1" d="M39,38.2c-0.3-0.3-0.8-0.3-1.1,0c-0.3,0.3-0.3,0.8,0,1.1l2.3,2.3c0.2,0.2,0.4,0.2,0.6,0.2
		c0.2,0,0.4-0.1,0.6-0.2c0.3-0.3,0.3-0.8,0-1.1L39,38.2z M39,38.2"/>
	<path class="st1" d="M15.2,16.7c0.2,0.2,0.4,0.2,0.6,0.2c0.2,0,0.4-0.1,0.6-0.2c0.3-0.3,0.3-0.8,0-1.1l-2.3-2.3
		c-0.3-0.3-0.8-0.3-1.1,0c-0.3,0.3-0.3,0.8,0,1.1L15.2,16.7z M15.2,16.7"/>
	<path class="st1" d="M27.1,17.9c-5.3,0-9.6,4.3-9.6,9.6c0,0.4,0.4,0.8,0.8,0.8c0.4,0,0.8-0.4,0.8-0.8c0-4.4,3.6-8,8-8
		c0.4,0,0.8-0.4,0.8-0.8C27.9,18.2,27.5,17.9,27.1,17.9L27.1,17.9z M27.1,17.9"/>
	<path class="st1" d="M27.1,13.9c-7.5,0-13.6,6.1-13.6,13.6c0,5.7,3.5,10.7,8.8,12.7v7.3c0,0.4,0.4,0.8,0.8,0.8h0.8v1.6
		c0,0.4,0.4,0.8,0.8,0.8h4.8c0.4,0,0.8-0.4,0.8-0.8v-1.6h0.8c0.4,0,0.8-0.4,0.8-0.8v-7.3c5.3-2,8.8-7,8.8-12.7
		C40.7,20,34.6,13.9,27.1,13.9L27.1,13.9z M30.8,38.9c-0.3,0.1-0.6,0.4-0.6,0.8v1.4h-6.4v-1.4c0-0.3-0.2-0.7-0.6-0.8
		c-4.9-1.6-8.3-6.2-8.3-11.4c0-6.6,5.4-12,12-12c6.6,0,12,5.4,12,12C39.1,32.7,35.8,37.3,30.8,38.9L30.8,38.9z M30.8,38.9"/>
</g>
<g class="st2">
	<path class="st3" d="M324.5,378.5l-4.2-1.8c-0.2-0.1-0.4-0.1-0.6,0c-0.2,0.1-0.3,0.3-0.3,0.5v17.3h-10.7v-4.2c0-1.6-1.4-3-3-3h-3.5
		v-1.8h2.9c1.6,0,3-1.3,3-3v-5.4c0-0.3-0.3-0.6-0.6-0.6h-2.4c-0.3,0-0.6,0.3-0.6,0.6v4.8h-2.9c0.3-0.6,0.5-1.1,0.5-1.8
		c0-2-1.6-3.6-3.6-3.6c-2,0-3.6,1.6-3.6,3.6c0,0.8,0.2,1.5,0.7,2.1l-3.3,3.3c-0.6,0.6-0.9,1.3-0.9,2.1c0,0.8,0.3,1.5,0.9,2.1
		l2.2,2.2c0.1,0.1,0.3,0.2,0.4,0.2c0.2,0,0.3-0.1,0.4-0.2l0.8-0.8v8.7c0,0.3,0.2,0.6,0.6,0.6h0.1c-0.4,0.6-0.6,1.1-0.6,1.8
		c0,0.7,0.2,1.2,0.6,1.8h-2.4c-1.6,0-3,1.3-3,3c0,0.7,0.2,1.2,0.6,1.8h-2.4c-1.6,0-3,1.3-3,3c0,1.6,1.3,3,3,3h16.7
		c0.2,0,0.4-0.1,0.5-0.3c0.1-0.2,0.1-0.4-0.1-0.6c-0.8-1.1-0.9-2.6-0.1-3.8h4.4c0.2,0,0.4-0.1,0.5-0.3c0.1-0.2,0.1-0.4-0.1-0.6
		c-0.8-1.1-0.9-2.6-0.1-3.8h4.4c0.2,0,0.4-0.1,0.5-0.3c0.1-0.2,0.1-0.4-0.1-0.6c-0.8-1.1-0.9-2.6-0.2-3.8h4.5c0.2,0,0.4-0.1,0.5-0.3
		c0.1-0.2,0.1-0.4-0.1-0.6c-0.9-1.2-0.9-2.9,0-4.1c0.1-0.2,0.2-0.4,0.1-0.6c-0.1-0.2-0.3-0.3-0.5-0.3v-13.3l3.8-1.6
		c0.2-0.1,0.4-0.3,0.4-0.5C324.8,378.8,324.7,378.6,324.5,378.5L324.5,378.5z M298.5,377.8c1.3,0,2.4,1.1,2.4,2.4
		c0,1.3-1.1,2.4-2.4,2.4c-1.3,0-2.4-1.1-2.4-2.4C296.1,378.9,297.2,377.8,298.5,377.8L298.5,377.8z M296.2,388.4l-0.7-0.7l0.7-0.7
		V388.4z M296.3,385.2l-2.1,2.1c-0.1,0.1-0.2,0.3-0.2,0.4c0,0.2,0.1,0.3,0.2,0.4l1.7,1.7l-0.9,0.9l-1.8-1.8
		c-0.3-0.3-0.5-0.8-0.5-1.3c0-0.5,0.2-0.9,0.5-1.3l3.3-3.3c0.6,0.4,1.3,0.7,2.1,0.7c0.7,0,1.4,0,2-0.6h4.6c0.3,0,0.6-0.3,0.6-0.6
		v-4.8h1.2v4.8c0,1-0.8,1.8-1.8,1.8h-3.6c-0.3,0-0.6,0.3-0.6,0.6v3c0,0.3,0.2,0.6,0.6,0.6h4.2c1,0,1.8,0.8,1.8,1.8v4.2h-1.8V391
		c0-0.3-0.3-0.6-0.6-0.6h-5.4c-0.3,0-0.6,0.3-0.6,0.6v8.4h-1.8v-13.7c0-0.2-0.2-0.5-0.4-0.6C296.8,385,296.5,385,296.3,385.2
		L296.3,385.2z M301.6,399.3h-1.2v-7.8h4.2v3h-0.6c-1.6,0-3,1.3-3,3C301,398.2,301.2,398.7,301.6,399.3L301.6,399.3z M289.6,413.7
		c-1,0-1.8-0.8-1.8-1.8s0.8-1.8,1.8-1.8h15.7c-0.2,0.6-0.3,0.6-0.3,1.2h-14.2v1.2H305c0.1,0.6,0.2,0.6,0.3,1.2H289.6z M306.3,408.9
		h-11.9c-1,0-1.8-0.8-1.8-1.8s0.8-1.8,1.8-1.8h15.7c-0.2,0.6-0.3,0.6-0.3,1.2h-9.4v1.2h9.4c0.1,0.6,0.2,0.6,0.3,1.2H306.3z
		 M314.5,402.9c0.1,0.6,0.2,0.6,0.3,1.2h-15.7c-1,0-1.8-0.8-1.8-1.8c0-1,0.8-1.8,1.8-1.8h15.7c-0.2,0.6-0.3,0.6-0.3,1.2h-5.2v1.2
		H314.5z M319.3,398.1c0.1,0.6,0.2,0.6,0.3,1.2h-15.7c-1,0-1.8-0.8-1.8-1.8s0.8-1.8,1.8-1.8h15.7c-0.2,0.6-0.3,0.6-0.3,1.2h-9.4v1.2
		H319.3z M320.7,379.9v-1.8l2.1,0.9L320.7,379.9z M320.7,379.9"/>
</g>
<g class="st2">
	<g class="st4">
		<path class="st5" d="M318.3,409h-24.8v-3.8c0-0.8,0.4-1.6,1-2.2c3-2.5,6.2-4.1,7-4.5v-4.4c-0.6-0.5-1-1.2-1-2.1v-4.9
			c0-2.7,2.2-4.9,4.9-4.9h1.1c2.7,0,4.9,2.2,4.9,4.9v4.9c0,0.8-0.4,1.6-1,2.1v4.4c0.8,0.4,4,2.1,7,4.5c0.6,0.5,1,1.3,1,2.2V409z
			 M294.3,408.2h23.2v-3c0-0.6-0.3-1.2-0.7-1.5l0,0c-3-2.5-6.3-4.1-7-4.5c-0.2-0.1-0.4-0.3-0.4-0.6v-5l0.2-0.1
			c0.5-0.3,0.8-0.9,0.8-1.5v-4.9c0-2.2-1.8-4-4-4h-1.1c-2.2,0-4,1.8-4,4v4.9c0,0.6,0.3,1.2,0.8,1.5l0.2,0.1v5c0,0.2-0.1,0.5-0.3,0.6
			c-0.4,0.2-3.8,1.9-7,4.5c-0.5,0.4-0.7,0.9-0.7,1.5V408.2z"/>
		<path class="st5" d="M329.2,404.8h-9.9l-0.1-0.3c-0.2-0.9-0.6-1.7-1.3-2.2c-2.1-1.7-4.4-3.1-5.9-4l-0.6-0.3l0.6-0.4
			c1.3-0.8,2.4-1.4,2.9-1.7v-3.6c-0.5-0.4-0.8-1.1-0.8-1.8v-4.1c0-2.3,1.9-4.1,4.1-4.1h0.9c2.3,0,4.1,1.9,4.1,4.1v4.1
			c0,0.7-0.3,1.3-0.8,1.8v3.6c0.7,0.3,3.4,1.7,5.8,3.8c0.5,0.4,0.9,1.1,0.9,1.8l0,0V404.8z M320,404h8.4v-2.4c0-0.5-0.2-1-0.6-1.2
			l0,0c-2.6-2.2-5.5-3.6-5.8-3.7c-0.2-0.1-0.3-0.3-0.3-0.5v-4.2l0.2-0.1c0.4-0.3,0.7-0.7,0.7-1.2v-4.1c0-1.8-1.5-3.3-3.3-3.3h-0.9
			c-1.8,0-3.3,1.5-3.3,3.3v4.1c0,0.5,0.2,0.9,0.7,1.2l0.2,0.1v4.2c0,0.2-0.1,0.4-0.3,0.5l0,0c-0.3,0.1-1.2,0.6-2.4,1.3
			c1.5,0.9,3.5,2.1,5.4,3.7C319.2,402.2,319.8,403.1,320,404z"/>
		<path class="st5" d="M292.5,404.8h-9.9v-3.2c0-0.7,0.3-1.4,0.9-1.9c2.5-2.1,5.2-3.4,5.9-3.8v-3.6c-0.5-0.4-0.8-1.1-0.8-1.8v-4.1
			c0-2.3,1.9-4.1,4.1-4.1h0.9c2.3,0,4.1,1.9,4.1,4.1v4.1c0,0.7-0.3,1.3-0.8,1.8v3.6c0.5,0.2,1.6,0.8,2.9,1.7l0.6,0.4l-0.6,0.3
			c-1.5,0.8-3.8,2.2-5.9,4c-0.7,0.6-1.2,1.4-1.3,2.2L292.5,404.8z M283.5,404h8.4c0.2-0.9,0.8-1.8,1.5-2.4c1.9-1.6,3.9-2.8,5.4-3.7
			c-1.2-0.7-2.1-1.2-2.4-1.3c-0.2-0.1-0.3-0.3-0.3-0.5v-4.2l0.2-0.1c0.4-0.3,0.7-0.7,0.7-1.2v-4.1c0-1.8-1.5-3.3-3.3-3.3h-0.9
			c-1.8,0-3.3,1.5-3.3,3.3v4.1c0,0.5,0.2,0.9,0.7,1.2l0.2,0.1v4.2c0,0.2-0.1,0.4-0.3,0.5l0,0c-0.3,0.2-3.2,1.6-5.8,3.7
			c-0.4,0.3-0.6,0.8-0.6,1.2V404z"/>
	</g>
</g>
<g class="st2">
	<path class="st3" d="M300.4,375.7c-2.8,0-5,2.3-5,5s2.3,5,5,5c2.8,0,5-2.3,5-5S303.2,375.7,300.4,375.7L300.4,375.7z M300.4,383.8
		c-1.7,0-3.1-1.4-3.1-3.1c0-1.7,1.4-3.1,3.1-3.1c1.7,0,3.1,1.4,3.1,3.1C303.5,382.5,302.1,383.8,300.4,383.8L300.4,383.8z
		 M300.4,383.8"/>
	<path class="st3" d="M312,385.8c2.8,0,5-2.3,5-5s-2.3-5-5-5c-2.8,0-5,2.3-5,5S309.2,385.8,312,385.8L312,385.8z M312,377.7
		c1.7,0,3.1,1.4,3.1,3.1c0,1.7-1.4,3.1-3.1,3.1c-1.7,0-3.1-1.4-3.1-3.1C309,379.1,310.3,377.7,312,377.7L312,377.7z M312,377.7"/>
	<path class="st3" d="M292,391.8v6.4c0,1.9,1,3.5,2.6,4.4v8.4c0,2.2,1.8,4,4,4h4.6c0.5,0,1-0.4,1-1c0-0.5-0.4-1-1-1h-4.6
		c-1.1,0-2-0.9-2-2v-9c0-0.4-0.3-0.8-0.6-0.9c-1.2-0.4-2-1.6-2-2.8v-6.4c0-1.7,1.4-3,3-3h4.3c0.5,0,1-0.4,1-1c0-0.5-0.4-1-1-1H297
		C294.2,386.9,292,389.1,292,391.8L292,391.8z M292,391.8"/>
	<path class="st3" d="M303.1,391.8v6.4c0,1.9,1,3.5,2.6,4.4v8.4c0,2.2,1.8,4,4,4h4.6c2.2,0,4-1.8,4-4v-8.4c1.6-0.9,2.6-2.6,2.6-4.4
		v-6.4c0-2.8-2.2-5-5-5h-7.8C305.4,386.9,303.1,389.1,303.1,391.8L303.1,391.8z M305.1,391.8c0-1.7,1.4-3,3-3h7.8c1.7,0,3,1.4,3,3
		v6.4c0,1.3-0.8,2.4-2,2.8c-0.4,0.1-0.6,0.5-0.6,0.9v9.1c0,1.1-0.9,2-2,2h-4.6c-1.1,0-2-0.9-2-2V402c0-0.4-0.3-0.8-0.6-0.9
		c-1.2-0.4-2-1.6-2-2.8L305.1,391.8L305.1,391.8z M305.1,391.8"/>
</g>
<g class="st2">
	<g class="st4">
		<path class="st1" d="M324.8,394c0-2.9-2.3-5.2-5.2-5.2h-8V383c0-2.4-0.7-4.2-2.1-5.2c-2.2-1.6-5.3-0.7-5.4-0.7
			c-0.4,0.1-0.7,0.5-0.7,0.9v6.5c0,5.1-5.9,6.8-6.2,6.9c-0.1,0-0.1,0-0.2,0.1c-0.4-0.9-1.4-1.5-2.4-1.5h-4.3c-1.5,0-2.7,1.2-2.7,2.7
			v15.8c0,1.5,1.2,2.7,2.7,2.7h2.5c0.5,0,0.9-0.4,0.9-0.9c0-0.5-0.4-0.9-0.9-0.9h-2.5c-0.4,0-0.8-0.4-0.8-0.8v-15.8
			c0-0.4,0.4-0.8,0.8-0.8h4.3c0.4,0,0.8,0.4,0.8,0.8v14.9c0,2.9,2.3,5.2,5.2,5.2h15.9c3.5,0,5.8-1.8,6.2-5l2.1-13.4c0,0,0-0.1,0-0.1
			L324.8,394L324.8,394z M323,394.1l-2.1,13.4c-0.3,2.3-1.7,3.4-4.3,3.4h-15.9c-1.8,0-3.3-1.5-3.3-3.3v-14.4c0.1,0,0.3,0,0.4,0
			c0.3-0.1,7.5-2.2,7.5-8.7v-5.7c0.8-0.1,2.1-0.2,3.1,0.5c0.9,0.7,1.4,1.9,1.4,3.7v6.7c0,0.5,0.4,0.9,0.9,0.9h8.9
			C321.5,390.7,323,392.2,323,394.1L323,394.1L323,394.1z M323,394.1"/>
	</g>
</g>
</svg>
